<?xml version="1.0" standalone="no"?>
<!-- Generator: Paintmaps.com , Online SVG vector map maker -->
<svg xmlns="http://www.w3.org/2000/svg" version="1.1" baseProfile="full" width="900" height="600" style="background-color:#e0f2f1">
<rect width="100%" height="100%" fill="#e0f2f1"/>
<path d="M 662.77 475.9295 L 663.8104 477.6469 L 661.7793 476.3919 L 657.6675 476.3919 L 662.77 475.9295 Z" fill="#000" fill-opacity="1" stroke="#000" stroke-width="0" paint-order="fill" stroke-opacity="1" stroke-dasharray="" stroke-linecap="butt" stroke-linejoin="miter" stroke-miterlimit="10" transform="matrix(1.100000023841858,0,0,1.100000023841858,-45.0000114440918,-29.9999942779541)" clip-path="none" style="filter: url(#f1)"/>
<path d="M 582.5168 268.262 L 584.5479 271.2343 L 578.5042 267.6675 L 580.6839 267.1391 L 582.5168 268.262 Z M 523.2186 190.4527 L 521.9802 197.7184 L 524.4076 202.21 L 530.4513 208.617 L 532.6806 216.8075 L 538.4767 221.1669 L 543.926 230.9426 L 553.1402 240.6522 L 553.0907 242.1054 L 557.6978 244.0209 L 560.7692 246.729 L 564.336 254.9195 L 559.5803 252.3434 L 562.0572 259.0147 L 563.7416 260.3357 L 560.3729 262.0531 L 563.1471 267.4033 L 566.4167 269.3188 L 569.1413 276.8487 L 574.9869 280.7458 L 575.6309 287.5492 L 583.1608 300.6935 L 581.2784 300.6935 L 580.238 308.884 L 583.9039 312.3187 L 588.0652 321.3018 L 591.3843 326.718 L 598.7656 341.91 L 608.2276 355.1864 L 612.2402 362.7164 L 614.5686 369.5858 L 617.3923 373.2847 L 620.3646 380.088 L 628.8358 394.8837 L 629.2817 398.5166 L 632.3035 401.6871 L 640.4775 419.3229 L 647.5616 424.8713 L 649.345 429.561 L 656.6272 434.7791 L 657.4694 437.4873 L 662.5223 438.5441 L 664.0581 441.5164 L 661.1848 442.7054 L 653.4567 439.667 L 652.2182 442.6393 L 652.0201 448.584 L 653.6549 450.4995 L 653.1099 463.2475 L 655.5869 467.4749 L 657.3703 477.1185 L 661.1848 483.8558 L 663.2159 490.7252 L 672.0834 500.0385 L 676.5914 501.954 L 686.2515 503.7374 L 689.8183 506.5116 L 691.7008 511.3995 L 697.0015 514.4379 L 697.6455 517.8065 L 703.293 520.5146 L 710.3275 526.5914 L 712.2595 526.1291 L 718.7491 531.3472 L 718.3528 534.7819 L 475.1658 540 L 479.4757 534.6498 L 488.789 530.1582 L 491.5632 526.7235 L 495.3282 525.997 L 499.7867 521.3733 L 502.66 513.0508 L 504.8397 511.0032 L 511.8247 516.5515 L 516.085 517.0139 L 521.8811 514.9663 L 530.699 506.4456 L 532.4329 503.8695 L 532.5815 498.7835 L 535.1575 493.8296 L 542.0435 497.9909 L 548.9789 498.3872 L 555.5676 504.1998 L 557.4006 502.5485 L 555.3695 496.2075 L 552.4467 492.3765 L 545.7094 488.9418 L 545.0654 486.63 L 549.722 479.8266 L 551.6045 473.2214 L 548.2358 464.0402 L 549.4248 459.1523 L 548.3349 452.4811 L 545.5607 450.1032 L 541.6967 441.9127 L 540.3591 433.5241 L 541.9444 425.4658 L 546.7001 418.3982 L 547.146 415.4259 L 542.2416 405.452 L 541.449 396.4029 L 540.0619 390.6564 L 536.8419 385.9006 L 527.8258 379.1633 L 524.903 374.936 L 524.0113 368.661 L 525.6956 364.3677 L 534.464 354.8562 L 537.2877 346.4015 L 536.6933 341.0513 L 534.9099 336.5598 L 529.7083 331.6719 L 526.2901 330.6811 L 519.9986 331.1435 L 509.8927 335.8332 L 503.2049 326.652 L 495.8731 323.7457 L 492.8512 319.2541 L 492.5045 316.48 L 488.9377 309.9408 L 479.7234 303.0053 L 473.4319 290.7197 L 467.2891 285.0392 L 463.0783 279.2927 L 452.1797 274.3388 L 450.2477 270.2435 L 450.3468 264.497 L 451.0898 259.7413 L 448.2166 243.7567 L 445.8883 239.1991 L 444.947 233.1223 L 449.1083 222.6861 L 450.4954 210.7967 L 452.576 204.3897 L 460.9481 192.8306 L 463.6232 186.8859 L 463.6728 182.1962 L 471.2522 191.7077 L 474.175 193.5571 L 489.8294 198.2468 L 491.6623 199.0395 L 502.4618 197.8505 L 519.1069 190.5188 L 523.2186 190.4527 Z" fill="#000" fill-opacity="1" stroke="#000" stroke-width="0" paint-order="fill" stroke-opacity="1" stroke-dasharray="" stroke-linecap="butt" stroke-linejoin="miter" stroke-miterlimit="10" transform="matrix(1.100000023841858,0,0,1.100000023841858,-45.0000114440918,-29.9999942779541)" clip-path="none" style="filter: url(#f1)"/>
<path d="M 605.0571 243.8227 L 608.4257 247.3895 L 605.3048 247.5877 L 603.0755 245.8703 L 605.0571 243.8227 Z M 617.3428 170.0426 L 611.3485 179.356 L 611.1999 184.5741 L 609.0202 189.1317 L 609.6642 194.8782 L 608.0294 196.0011 L 607.7817 205.7107 L 605.2552 212.8443 L 601.193 221.365 L 598.7161 228.6968 L 599.1124 232.3297 L 600.9949 235.5002 L 599.905 239.7936 L 600.0537 244.6154 L 596.3382 248.4464 L 593.564 253.1361 L 590.5422 254.7213 L 585.291 253.9287 L 578.1574 247.5216 L 576.5722 247.5877 L 569.389 240.8504 L 562.6517 230.0839 L 557.0043 226.8474 L 554.131 222.8842 L 548.434 217.2038 L 546.502 211.8536 L 547.8395 207.4941 L 545.7589 204.9181 L 544.9663 197.19 L 543.6783 194.2837 L 535.9502 186.2254 L 532.8788 184.2438 L 529.8569 178.5633 L 529.8073 175.9213 L 525.7451 173.3452 L 525.2497 167.8629 L 523.9122 166.8721 L 524.259 160.333 L 522.5746 157.6248 L 522.5746 157.6248 L 531.0458 151.416 L 542.6379 150.6233 L 569.6367 154.9167 L 580.6344 160.4651 L 589.2541 163.5035 L 599.6078 167.8629 L 617.3428 170.0426 Z" fill="#000" fill-opacity="1" stroke="#000" stroke-width="0" paint-order="fill" stroke-opacity="1" stroke-dasharray="" stroke-linecap="butt" stroke-linejoin="miter" stroke-miterlimit="10" transform="matrix(1.100000023841858,0,0,1.100000023841858,-45.0000114440918,-29.9999942779541)" clip-path="none" style="filter: url(#f1)"/>
<path d="M 525.4974 358.1588 L 524.0608 358.7532 L 525.1011 356.6396 L 525.9928 357.0359 L 525.4974 358.1588 Z" fill="#000" fill-opacity="1" stroke="#000" stroke-width="0" paint-order="fill" stroke-opacity="1" stroke-dasharray="" stroke-linecap="butt" stroke-linejoin="miter" stroke-miterlimit="10" transform="matrix(1.100000023841858,0,0,1.100000023841858,-45.0000114440918,-29.9999942779541)" clip-path="none" style="filter: url(#f1)"/>
<path d="M 500.4307 94.6112 L 500.5793 94.6773 L 500.4307 94.281 L 503.9975 93.8186 L 506.5735 92.8939 L 507.4652 92.6297 L 519.6518 99.5651 L 522.1783 122.8154 L 526.0919 128.9583 L 528.4202 134.7708 L 520.4445 134.3085 L 514.4007 137.3469 L 505.2855 135.6295 L 490.1266 136.29 L 488.2441 131.0719 L 486.4112 122.9475 L 485.0241 120.1734 L 487.7487 120.8339 L 493.6439 120.1734 L 498.7959 114.3608 L 500.0839 111.1903 L 499.539 106.7648 L 502.66 100.2256 L 502.5113 96.7909 L 500.4307 94.6112 Z" fill="#000" fill-opacity="1" stroke="#000" stroke-width="0" paint-order="fill" stroke-opacity="1" stroke-dasharray="" stroke-linecap="butt" stroke-linejoin="miter" stroke-miterlimit="10" transform="matrix(1.100000023841858,0,0,1.100000023841858,-45.0000114440918,-29.9999942779541)" clip-path="none" style="filter: url(#f1)"/>
<path d="M 463.3755 120.1073 L 455.5484 114.2287 L 452.5265 114.4268 L 449.8514 112.6434 L 444.3525 114.4929 L 444.3525 111.1903 L 442.5691 109.8032 L 445.1452 107.6895 L 443.015 99.5651 L 446.5818 99.6972 L 454.9044 97.1212 L 455.7961 92.8278 L 463.1774 93.4223 L 461.9389 97.2533 L 465.6048 97.3194 L 463.8214 100.0935 L 462.4838 107.8877 L 464.1681 115.4176 L 463.4746 118.9184 L 463.3755 120.1073 Z" fill="#000" fill-opacity="1" stroke="#000" stroke-width="0" paint-order="fill" stroke-opacity="1" stroke-dasharray="" stroke-linecap="butt" stroke-linejoin="miter" stroke-miterlimit="10" transform="matrix(1.100000023841858,0,0,1.100000023841858,-45.0000114440918,-29.9999942779541)" clip-path="none" style="filter: url(#f1)"/>
<path d="M 444.3525 114.4929 L 449.8514 112.6434 L 452.5265 114.4268 L 455.5484 114.2287 L 463.3755 120.1073 L 462.3847 122.4191 L 458.5702 125.9199 L 457.3318 129.0904 L 457.7281 137.2808 L 458.9665 139.2624 L 455.697 136.9506 L 451.9815 136.7524 L 449.356 131.3361 L 445.8387 131.4682 L 447.8203 129.5527 L 446.3341 128.1656 L 444.3525 114.4929 Z" fill="#000" fill-opacity="1" stroke="#000" stroke-width="0" paint-order="fill" stroke-opacity="1" stroke-dasharray="" stroke-linecap="butt" stroke-linejoin="miter" stroke-miterlimit="10" transform="matrix(1.100000023841858,0,0,1.100000023841858,-45.0000114440918,-29.9999942779541)" clip-path="none" style="filter: url(#f1)"/>
<path d="M 488.2441 131.0719 L 490.1266 136.29 L 492.3558 153.8599 L 492.0586 158.2854 L 465.1589 159.5404 L 465.0103 153.4636 L 462.1866 147.3868 L 462.8306 142.1687 L 471.3513 138.734 L 477.8409 138.4037 L 488.2441 131.0719 Z" fill="#000" fill-opacity="1" stroke="#000" stroke-width="0" paint-order="fill" stroke-opacity="1" stroke-dasharray="" stroke-linecap="butt" stroke-linejoin="miter" stroke-miterlimit="10" transform="matrix(1.100000023841858,0,0,1.100000023841858,-45.0000114440918,-29.9999942779541)" clip-path="none" style="filter: url(#f1)"/>
<path d="M 477.8409 138.4037 L 471.3513 138.734 L 462.8306 142.1687 L 462.038 140.6495 L 458.9665 139.2624 L 457.7281 137.2808 L 457.3318 129.0904 L 458.5702 125.9199 L 462.3847 122.4191 L 463.3755 120.1073 L 463.4746 118.9184 L 465.258 119.8431 L 467.6359 119.6449 L 464.9608 122.4852 L 464.2672 126.3822 L 469.0725 134.0443 L 477.8409 138.4037 Z" fill="#000" fill-opacity="1" stroke="#000" stroke-width="0" paint-order="fill" stroke-opacity="1" stroke-dasharray="" stroke-linecap="butt" stroke-linejoin="miter" stroke-miterlimit="10" transform="matrix(1.100000023841858,0,0,1.100000023841858,-45.0000114440918,-29.9999942779541)" clip-path="none" style="filter: url(#f1)"/>
<path d="M 488.2441 131.0719 L 477.8409 138.4037 L 469.0725 134.0443 L 464.2672 126.3822 L 464.9608 122.4852 L 467.6359 119.6449 L 468.7257 116.6065 L 467.9331 110.5298 L 470.4596 108.7464 L 475.7107 108.7464 L 478.584 106.6327 L 485.4699 95.4699 L 492.5045 94.4791 L 496.6657 92.2994 L 497.4088 93.3562 L 500.4307 94.6112 L 502.5113 96.7909 L 502.66 100.2256 L 499.539 106.7648 L 500.0839 111.1903 L 498.7959 114.3608 L 493.6439 120.1734 L 487.7487 120.8339 L 485.0241 120.1734 L 486.4112 122.9475 L 488.2441 131.0719 Z M 506.5735 92.8939 L 503.9975 93.8186 L 500.4307 94.281 L 502.6104 92.3655 L 505.8305 92.6297 L 506.4249 90.1197 L 506.4745 90.1857 L 506.5735 92.8939 Z" fill="#000" fill-opacity="1" stroke="#000" stroke-width="0" paint-order="fill" stroke-opacity="1" stroke-dasharray="" stroke-linecap="butt" stroke-linejoin="miter" stroke-miterlimit="10" transform="matrix(1.100000023841858,0,0,1.100000023841858,-45.0000114440918,-29.9999942779541)" clip-path="none" style="filter: url(#f1)"/>
<path d="M 617.3428 170.0426 L 599.6078 167.8629 L 589.2541 163.5035 L 580.6344 160.4651 L 569.6367 154.9167 L 542.6379 150.6233 L 531.0458 151.416 L 529.956 149.3023 L 529.2624 139.3284 L 528.4202 134.7708 L 526.0919 128.9583 L 522.1783 122.8154 L 519.6518 99.5651 L 519.5032 95.3378 L 519.5032 95.3378 L 526.2405 94.2149 L 540.3591 86.1566 L 546.9478 86.8831 L 552.9421 88.6005 L 556.9052 91.3086 L 563.0976 91.7049 L 571.6678 89.261 L 579.594 85.7603 L 585.836 81.4669 L 586.9258 83.3163 L 591.6816 96.9891 L 598.4684 113.6342 L 601.094 125.8538 L 603.9672 128.4959 L 610.1596 144.8768 L 610.5559 148.1794 L 614.3704 157.757 L 615.6584 166.2116 L 617.3428 170.0426 Z" fill="#000" fill-opacity="1" stroke="#000" stroke-width="0" paint-order="fill" stroke-opacity="1" stroke-dasharray="" stroke-linecap="butt" stroke-linejoin="miter" stroke-miterlimit="10" transform="matrix(1.100000023841858,0,0,1.100000023841858,-45.0000114440918,-29.9999942779541)" clip-path="none" style="filter: url(#f1)"/>
<path d="M 522.5746 157.6248 L 520.5435 155.9735 L 521.3857 153.4636 L 519.0078 149.5004 L 516.63 149.3023 L 514.7475 151.5481 L 515.7383 154.5204 L 511.6761 160.4651 L 509.3973 167.0703 L 511.577 170.7031 L 518.8097 176.912 L 520.2958 179.2239 L 523.2186 190.4527 L 519.1069 190.5188 L 502.4618 197.8505 L 491.6623 199.0395 L 489.8294 198.2468 L 492.2568 160.5972 L 492.0586 158.2854 L 492.3558 153.8599 L 490.1266 136.29 L 505.2855 135.6295 L 514.4007 137.3469 L 520.4445 134.3085 L 528.4202 134.7708 L 529.2624 139.3284 L 529.956 149.3023 L 531.0458 151.416 L 522.5746 157.6248 L 522.5746 157.6248 Z" fill="#000" fill-opacity="1" stroke="#000" stroke-width="0" paint-order="fill" stroke-opacity="1" stroke-dasharray="" stroke-linecap="butt" stroke-linejoin="miter" stroke-miterlimit="10" transform="matrix(1.100000023841858,0,0,1.100000023841858,-45.0000114440918,-29.9999942779541)" clip-path="none" style="filter: url(#f1)"/>
<path d="M 505.0874 84.9676 L 503.0067 84.0429 L 505.0874 84.3071 L 505.0874 84.6374 L 505.0874 84.9676 Z M 485.9158 85.0337 L 491.4146 88.3363 L 495.9722 88.006 L 496.6657 92.2994 L 492.5045 94.4791 L 485.4699 95.4699 L 478.584 106.6327 L 475.7107 108.7464 L 470.4596 108.7464 L 467.9331 110.5298 L 468.7257 116.6065 L 467.6359 119.6449 L 465.258 119.8431 L 463.4746 118.9184 L 464.1681 115.4176 L 462.4838 107.8877 L 463.8214 100.0935 L 465.6048 97.3194 L 461.9389 97.2533 L 463.1774 93.4223 L 465.3075 92.3655 L 464.5645 81.665 L 463.2764 75.324 L 467.3386 72.8141 L 474.5713 76.7111 L 476.5529 76.9753 L 473.6796 80.41 L 479.1785 84.4392 L 481.6554 84.4392 L 477.6923 89.3931 L 478.7326 90.582 L 485.2718 86.6189 L 485.9158 85.0337 Z M 497.8051 80.9385 L 498.0033 80.8724 L 498.251 80.6742 L 502.7095 84.0429 L 497.8051 80.9385 Z" fill="#000" fill-opacity="1" stroke="#000" stroke-width="0" paint-order="fill" stroke-opacity="1" stroke-dasharray="" stroke-linecap="butt" stroke-linejoin="miter" stroke-miterlimit="10" transform="matrix(1.100000023841858,0,0,1.100000023841858,-45.0000114440918,-29.9999942779541)" clip-path="none" style="filter: url(#f1)"/>
<path d="M 519.6518 99.5651 L 507.4652 92.6297 L 506.5735 92.8939 L 506.4745 90.1857 L 506.4249 90.1197 L 506.7222 88.006 L 505.0874 84.9676 L 505.0874 84.6374 L 505.0874 84.3071 L 508.2083 85.1658 L 519.5032 95.3378 L 519.5032 95.3378 L 519.6518 99.5651 Z" fill="#000" fill-opacity="1" stroke="#000" stroke-width="0" paint-order="fill" stroke-opacity="1" stroke-dasharray="" stroke-linecap="butt" stroke-linejoin="miter" stroke-miterlimit="10" transform="matrix(1.100000023841858,0,0,1.100000023841858,-45.0000114440918,-29.9999942779541)" clip-path="none" style="filter: url(#f1)"/>
<path d="M 485.9158 85.0337 L 485.2718 86.6189 L 478.7326 90.582 L 477.6923 89.3931 L 481.6554 84.4392 L 479.1785 84.4392 L 473.6796 80.41 L 476.5529 76.9753 L 483.8847 75.0598 L 487.6001 72.9462 L 490.7211 73.0122 L 490.7211 73.0122 L 487.8973 74.2011 L 488.3432 77.9001 L 486.213 81.0045 L 485.9158 85.0337 Z M 498.0033 80.8724 L 497.8051 80.9385 L 494.1392 79.2211 L 494.0897 77.1074 L 490.9688 73.0122 L 490.9688 73.0122 L 490.9688 73.0122 L 492.0091 73.0783 L 494.7337 78.1643 L 498.251 80.6742 L 498.0033 80.8724 Z M 490.7211 73.0122 L 490.9192 72.9462 L 490.9688 73.0122 L 490.9688 73.0122 L 490.9688 73.0122 L 490.7211 73.0122 L 490.7211 73.0122 Z" fill="#000" fill-opacity="1" stroke="#000" stroke-width="0" paint-order="fill" stroke-opacity="1" stroke-dasharray="" stroke-linecap="butt" stroke-linejoin="miter" stroke-miterlimit="10" transform="matrix(1.100000023841858,0,0,1.100000023841858,-45.0000114440918,-29.9999942779541)" clip-path="none" style="filter: url(#f1)"/>
<path d="M 443.015 99.5651 L 445.1452 107.6895 L 442.5691 109.8032 L 444.3525 111.1903 L 444.3525 114.4929 L 446.3341 128.1656 L 447.8203 129.5527 L 445.8387 131.4682 L 426.2708 149.1702 L 424.5369 152.737 L 397.0428 135.1672 L 395.1603 130.9398 L 397.7363 124.797 L 399.6188 122.8815 L 406.5047 119.6449 L 409.378 117.135 L 411.5577 113.436 L 410.4183 110.3977 L 405.9103 103.4622 L 407.3964 98.3101 L 406.0093 94.4131 L 411.7063 91.3086 L 415.3722 84.6374 L 418.4932 85.3639 L 418.1464 88.006 L 420.4252 87.8739 L 423.2489 85.0337 L 418.7409 85.3639 L 424.3388 81.5329 L 425.924 74.3333 L 427.9056 76.9753 L 430.3825 81.665 L 432.8595 82.6558 L 431.8192 87.0813 L 433.1072 89.1289 L 436.4758 90.3178 L 440.3399 94.281 L 443.015 99.5651 Z" fill="#000" fill-opacity="1" stroke="#000" stroke-width="0" paint-order="fill" stroke-opacity="1" stroke-dasharray="" stroke-linecap="butt" stroke-linejoin="miter" stroke-miterlimit="10" transform="matrix(1.100000023841858,0,0,1.100000023841858,-45.0000114440918,-29.9999942779541)" clip-path="none" style="filter: url(#f1)"/>
<path d="M 395.1603 130.9398 L 397.0428 135.1672 L 424.5369 152.737 L 391.4944 172.7508 L 363.5049 200.4926 L 354.786 206.8997 L 320.7527 215.0901 L 317.5327 216.279 L 314.2136 220.2422 L 294.5466 259.7413 L 194.2301 255.7781 L 193.4375 255.7781 L 197.1033 181.2715 L 196.3603 175.7892 L 193.2888 166.9382 L 193.5861 158.6156 L 191.1091 152.6709 L 191.7531 146.0657 L 187.1955 133.3177 L 187.3442 131.4022 L 191.2577 124.3346 L 197.4006 116.4084 L 201.8095 102.4714 L 197.995 90.7142 L 197.1033 84.4392 L 197.7969 72.9462 L 204.881 67.728 L 206.6148 63.5668 L 210.5779 60 L 211.9155 66.2089 L 220.5848 68.1244 L 238.3693 63.5007 L 244.314 63.6989 L 260.5133 69.0491 L 276.663 71.8893 L 281.2701 74.1351 L 285.4314 73.6067 L 291.6238 76.7772 L 300.9371 78.1643 L 302.5224 83.1842 L 306.3369 85.8924 L 313.8668 87.8079 L 322.3875 85.496 L 323.6755 91.3086 L 326.8955 92.4976 L 334.3759 92.6957 L 341.1628 94.4791 L 344.7791 93.2902 L 361.8701 100.2917 L 362.2664 102.0751 L 370.4899 106.5666 L 378.5152 106.1703 L 390.4541 100.4899 L 394.4172 97.9799 L 394.4172 98.0459 L 395.1603 130.9398 Z" fill="#000" fill-opacity="1" stroke="#000" stroke-width="0" paint-order="fill" stroke-opacity="1" stroke-dasharray="" stroke-linecap="butt" stroke-linejoin="miter" stroke-miterlimit="10" transform="matrix(1.100000023841858,0,0,1.100000023841858,-45.0000114440918,-29.9999942779541)" clip-path="none" style="filter: url(#f1)"/>
<path d="M 395.1603 130.9398 L 394.4172 98.0459 L 394.4172 97.9799 L 401.5013 92.5636 L 404.5232 90.9784 L 414.2328 82.3255 L 415.3722 84.6374 L 411.7063 91.3086 L 406.0093 94.4131 L 407.3964 98.3101 L 405.9103 103.4622 L 410.4183 110.3977 L 411.5577 113.436 L 409.378 117.135 L 406.5047 119.6449 L 399.6188 122.8815 L 397.7363 124.797 L 395.1603 130.9398 Z" fill="#000" fill-opacity="1" stroke="#000" stroke-width="0" paint-order="fill" stroke-opacity="1" stroke-dasharray="" stroke-linecap="butt" stroke-linejoin="miter" stroke-miterlimit="10" transform="matrix(1.100000023841858,0,0,1.100000023841858,-45.0000114440918,-29.9999942779541)" clip-path="none" style="filter: url(#f1)"/>
<path d="M 458.9665 139.2624 L 462.038 140.6495 L 462.8306 142.1687 L 462.1866 147.3868 L 465.0103 153.4636 L 465.1589 159.5404 L 492.0586 158.2854 L 492.2568 160.5972 L 489.8294 198.2468 L 474.175 193.5571 L 471.2522 191.7077 L 463.6728 182.1962 L 462.8306 178.6294 L 457.1831 177.2423 L 454.1613 163.5035 L 450.9908 160.7293 L 442.1233 161.8522 L 433.2558 165.8813 L 422.4563 172.9489 L 402.4921 192.2361 L 400.6591 204.5878 L 399.5693 208.3528 L 392.4357 226.6492 L 386.8873 233.8489 L 380.3481 238.6707 L 360.3344 248.9087 L 357.2134 251.1545 L 351.8137 261.1944 L 294.5466 259.7413 L 314.2136 220.2422 L 317.5327 216.279 L 320.7527 215.0901 L 354.786 206.8997 L 363.5049 200.4926 L 391.4944 172.7508 L 424.5369 152.737 L 426.2708 149.1702 L 445.8387 131.4682 L 449.356 131.3361 L 451.9815 136.7524 L 455.697 136.9506 L 458.9665 139.2624 Z" fill="#000" fill-opacity="1" stroke="#000" stroke-width="0" paint-order="fill" stroke-opacity="1" stroke-dasharray="" stroke-linecap="butt" stroke-linejoin="miter" stroke-miterlimit="10" transform="matrix(1.100000023841858,0,0,1.100000023841858,-45.0000114440918,-29.9999942779541)" clip-path="none" style="filter: url(#f1)"/>
<path d="M 402.4921 192.2361 L 422.4563 172.9489 L 433.2558 165.8813 L 442.1233 161.8522 L 450.9908 160.7293 L 454.1613 163.5035 L 457.1831 177.2423 L 450 187.7446 L 447.0772 190.9151 L 443.5104 192.7645 L 425.7754 197.7845 L 420.9701 195.869 L 402.4921 192.2361 Z" fill="#000" fill-opacity="1" stroke="#000" stroke-width="0" paint-order="fill" stroke-opacity="1" stroke-dasharray="" stroke-linecap="butt" stroke-linejoin="miter" stroke-miterlimit="10" transform="matrix(1.100000023841858,0,0,1.100000023841858,-45.0000114440918,-29.9999942779541)" clip-path="none" style="filter: url(#f1)"/>
<path d="M 466.9919 534.7819 L 464.0691 540 L 181.2509 534.5837 L 193.4375 255.7781 L 194.2301 255.7781 L 294.5466 259.7413 L 351.8137 261.1944 L 439.3986 262.1191 L 438.7051 263.7704 L 439.1014 268.5262 L 443.0645 277.179 L 450.2477 284.5768 L 456.341 287.5492 L 460.4032 291.7104 L 465.8525 302.8072 L 471.9458 310.3371 L 476.0575 313.9039 L 494.4365 336.89 L 501.3719 343.3631 L 506.3754 345.0805 L 512.3201 343.5613 L 522.3269 338.6734 L 528.2716 339.1358 L 529.2624 343.2971 L 524.3085 354.9883 L 518.3143 359.8761 L 516.1346 363.2448 L 518.9583 377.9083 L 521.4352 382.0696 L 525.6461 385.2401 L 531.7394 389.5995 L 533.7209 393.5627 L 534.2658 398.5826 L 538.1299 409.4812 L 536.1483 415.2938 L 535.8016 431.4765 L 536.5446 435.0433 L 534.1668 439.4028 L 527.0827 440.6578 L 525.6956 445.0172 L 531.2935 450.7637 L 529.956 452.4811 L 521.8316 454.4626 L 518.7106 458.5578 L 516.4813 468.4657 L 519.8005 470.5793 L 531.2935 470.0509 L 530.8477 473.948 L 525.8442 479.8266 L 517.2244 501.6238 L 504.4434 497.3304 L 490.2257 504.2658 L 482.0517 504.0016 L 479.4757 507.9648 L 480.7142 515.0984 L 476.5529 522.6283 L 473.1347 524.808 L 466.4469 525.997 L 463.326 531.2151 L 466.9919 534.7819 Z" fill="#000" fill-opacity="1" stroke="#000" stroke-width="0" paint-order="fill" stroke-opacity="1" stroke-dasharray="" stroke-linecap="butt" stroke-linejoin="miter" stroke-miterlimit="10" transform="matrix(1.100000023841858,0,0,1.100000023841858,-45.0000114440918,-29.9999942779541)" clip-path="none" style="filter: url(#f1)"/>
<path d="M 438.7051 263.7704 L 439.3986 262.1191 L 351.8137 261.1944 L 357.2134 251.1545 L 360.3344 248.9087 L 380.3481 238.6707 L 386.8873 233.8489 L 392.4357 226.6492 L 399.5693 208.3528 L 443.015 207.5602 L 450.4954 210.7967 L 449.1083 222.6861 L 444.947 233.1223 L 445.8883 239.1991 L 448.2166 243.7567 L 451.0898 259.7413 L 450.3468 264.497 L 445.7396 265.0254 L 438.7051 263.7704 Z" fill="#000" fill-opacity="1" stroke="#000" stroke-width="0" paint-order="fill" stroke-opacity="1" stroke-dasharray="" stroke-linecap="butt" stroke-linejoin="miter" stroke-miterlimit="10" transform="matrix(1.100000023841858,0,0,1.100000023841858,-45.0000114440918,-29.9999942779541)" clip-path="none" style="filter: url(#f1)"/>
<path d="M 450.4954 210.7967 L 443.015 207.5602 L 399.5693 208.3528 L 400.6591 204.5878 L 402.4921 192.2361 L 420.9701 195.869 L 425.7754 197.7845 L 443.5104 192.7645 L 447.0772 190.9151 L 450 187.7446 L 457.1831 177.2423 L 462.8306 178.6294 L 463.6728 182.1962 L 463.6232 186.8859 L 460.9481 192.8306 L 452.576 204.3897 L 450.4954 210.7967 Z" fill="#000" fill-opacity="1" stroke="#000" stroke-width="0" paint-order="fill" stroke-opacity="1" stroke-dasharray="" stroke-linecap="butt" stroke-linejoin="miter" stroke-miterlimit="10" transform="matrix(1.100000023841858,0,0,1.100000023841858,-45.0000114440918,-29.9999942779541)" clip-path="none" style="filter: url(#f1)"/>
<path d="M 463.1774 93.4223 L 455.7961 92.8278 L 454.9044 97.1212 L 446.5818 99.6972 L 443.015 99.5651 L 440.3399 94.281 L 436.4758 90.3178 L 433.1072 89.1289 L 431.8192 87.0813 L 432.8595 82.6558 L 430.3825 81.665 L 427.9056 76.9753 L 426.4194 73.7388 L 431.8192 76.2488 L 439.4482 74.4654 L 447.3249 71.8893 L 433.8503 79.4193 L 441.8261 79.7495 L 444.5012 76.9093 L 448.4147 78.2303 L 452.0806 77.3716 L 454.3099 73.3425 L 457.0841 74.5975 L 457.4804 72.2856 L 453.3686 69.5115 L 456.8859 68.983 L 461.9884 70.3701 L 467.3386 72.8141 L 463.2764 75.324 L 464.5645 81.665 L 465.3075 92.3655 L 463.1774 93.4223 Z" fill="#000" fill-opacity="1" stroke="#000" stroke-width="0" paint-order="fill" stroke-opacity="1" stroke-dasharray="" stroke-linecap="butt" stroke-linejoin="miter" stroke-miterlimit="10" transform="matrix(1.100000023841858,0,0,1.100000023841858,-45.0000114440918,-29.9999942779541)" clip-path="none" style="filter: url(#f1)"/>
<path d="M 438.7051 263.7704 L 445.7396 265.0254 L 450.3468 264.497 L 450.2477 270.2435 L 452.1797 274.3388 L 463.0783 279.2927 L 467.2891 285.0392 L 473.4319 290.7197 L 479.7234 303.0053 L 476.8501 302.8072 L 473.4319 297.9854 L 465.8525 302.8072 L 460.4032 291.7104 L 456.341 287.5492 L 450.2477 284.5768 L 443.0645 277.179 L 439.1014 268.5262 L 438.7051 263.7704 Z" fill="#000" fill-opacity="1" stroke="#000" stroke-width="0" paint-order="fill" stroke-opacity="1" stroke-dasharray="" stroke-linecap="butt" stroke-linejoin="miter" stroke-miterlimit="10" transform="matrix(1.100000023841858,0,0,1.100000023841858,-45.0000114440918,-29.9999942779541)" clip-path="none" style="filter: url(#f1)"/>
<path d="M 527.8258 379.1633 L 536.8419 385.9006 L 540.0619 390.6564 L 541.449 396.4029 L 542.2416 405.452 L 547.146 415.4259 L 546.7001 418.3982 L 541.9444 425.4658 L 540.3591 433.5241 L 541.6967 441.9127 L 545.5607 450.1032 L 548.3349 452.4811 L 549.4248 459.1523 L 548.2358 464.0402 L 551.6045 473.2214 L 549.722 479.8266 L 545.0654 486.63 L 545.7094 488.9418 L 552.4467 492.3765 L 555.3695 496.2075 L 557.4006 502.5485 L 555.5676 504.1998 L 548.9789 498.3872 L 542.0435 497.9909 L 535.1575 493.8296 L 532.5815 498.7835 L 532.4329 503.8695 L 530.699 506.4456 L 521.8811 514.9663 L 516.085 517.0139 L 511.8247 516.5515 L 504.8397 511.0032 L 502.66 513.0508 L 499.7867 521.3733 L 495.3282 525.997 L 491.5632 526.7235 L 488.789 530.1582 L 479.4757 534.6498 L 475.1658 540 L 472.4907 540 L 474.9181 532.4701 L 474.5713 530.1582 L 471.0541 528.7711 L 466.9919 534.7819 L 463.326 531.2151 L 466.4469 525.997 L 473.1347 524.808 L 476.5529 522.6283 L 480.7142 515.0984 L 479.4757 507.9648 L 482.0517 504.0016 L 490.2257 504.2658 L 504.4434 497.3304 L 517.2244 501.6238 L 525.8442 479.8266 L 530.8477 473.948 L 531.2935 470.0509 L 519.8005 470.5793 L 516.4813 468.4657 L 518.7106 458.5578 L 521.8316 454.4626 L 529.956 452.4811 L 531.2935 450.7637 L 525.6956 445.0172 L 527.0827 440.6578 L 534.1668 439.4028 L 536.5446 435.0433 L 535.8016 431.4765 L 536.1483 415.2938 L 538.1299 409.4812 L 534.2658 398.5826 L 533.7209 393.5627 L 531.7394 389.5995 L 525.6461 385.2401 L 527.1818 384.0512 L 527.8258 379.1633 Z" fill="#000" fill-opacity="1" stroke="#000" stroke-width="0" paint-order="fill" stroke-opacity="1" stroke-dasharray="" stroke-linecap="butt" stroke-linejoin="miter" stroke-miterlimit="10" transform="matrix(1.100000023841858,0,0,1.100000023841858,-45.0000114440918,-29.9999942779541)" clip-path="none" style="filter: url(#f1)"/>
<path d="M 527.8258 379.1633 L 527.1818 384.0512 L 525.6461 385.2401 L 521.4352 382.0696 L 518.9583 377.9083 L 516.1346 363.2448 L 518.3143 359.8761 L 524.3085 354.9883 L 529.2624 343.2971 L 528.2716 339.1358 L 522.3269 338.6734 L 512.3201 343.5613 L 506.3754 345.0805 L 501.3719 343.3631 L 494.4365 336.89 L 502.4618 332.0682 L 507.7129 337.0882 L 509.8927 335.8332 L 519.9986 331.1435 L 526.2901 330.6811 L 529.7083 331.6719 L 534.9099 336.5598 L 536.6933 341.0513 L 537.2877 346.4015 L 534.464 354.8562 L 525.6956 364.3677 L 524.0113 368.661 L 524.903 374.936 L 527.8258 379.1633 Z M 525.4974 358.1588 L 525.9928 357.0359 L 525.1011 356.6396 L 524.0608 358.7532 L 525.4974 358.1588 Z" fill="#000" fill-opacity="1" stroke="#000" stroke-width="0" paint-order="fill" stroke-opacity="1" stroke-dasharray="" stroke-linecap="butt" stroke-linejoin="miter" stroke-miterlimit="10" transform="matrix(1.100000023841858,0,0,1.100000023841858,-45.0000114440918,-29.9999942779541)" clip-path="none" style="filter: url(#f1)"/>
<path d="M 509.8927 335.8332 L 507.7129 337.0882 L 502.4618 332.0682 L 494.4365 336.89 L 476.0575 313.9039 L 471.9458 310.3371 L 465.8525 302.8072 L 473.4319 297.9854 L 476.8501 302.8072 L 479.7234 303.0053 L 488.9377 309.9408 L 492.5045 316.48 L 492.8512 319.2541 L 495.8731 323.7457 L 503.2049 326.652 L 509.8927 335.8332 Z" fill="#000" fill-opacity="1" stroke="#000" stroke-width="0" paint-order="fill" stroke-opacity="1" stroke-dasharray="" stroke-linecap="butt" stroke-linejoin="miter" stroke-miterlimit="10" transform="matrix(1.100000023841858,0,0,1.100000023841858,-45.0000114440918,-29.9999942779541)" clip-path="none" style="filter: url(#f1)"/>
<path d="M 662.77 475.9295 L 663.8104 477.6469 L 661.7793 476.3919 L 657.6675 476.3919 L 662.77 475.9295 Z" fill="#eee" fill-opacity="1" stroke="#000000" stroke-width="0.3636363557547579" paint-order="fill" stroke-opacity="1" stroke-dasharray="" stroke-linecap="butt" stroke-linejoin="miter" stroke-miterlimit="10" transform="matrix(1.100000023841858,0,0,1.100000023841858,-45.0000114440918,-29.9999942779541)" clip-path="none"/>
<path d="M 582.5168 268.262 L 584.5479 271.2343 L 578.5042 267.6675 L 580.6839 267.1391 L 582.5168 268.262 Z M 523.2186 190.4527 L 521.9802 197.7184 L 524.4076 202.21 L 530.4513 208.617 L 532.6806 216.8075 L 538.4767 221.1669 L 543.926 230.9426 L 553.1402 240.6522 L 553.0907 242.1054 L 557.6978 244.0209 L 560.7692 246.729 L 564.336 254.9195 L 559.5803 252.3434 L 562.0572 259.0147 L 563.7416 260.3357 L 560.3729 262.0531 L 563.1471 267.4033 L 566.4167 269.3188 L 569.1413 276.8487 L 574.9869 280.7458 L 575.6309 287.5492 L 583.1608 300.6935 L 581.2784 300.6935 L 580.238 308.884 L 583.9039 312.3187 L 588.0652 321.3018 L 591.3843 326.718 L 598.7656 341.91 L 608.2276 355.1864 L 612.2402 362.7164 L 614.5686 369.5858 L 617.3923 373.2847 L 620.3646 380.088 L 628.8358 394.8837 L 629.2817 398.5166 L 632.3035 401.6871 L 640.4775 419.3229 L 647.5616 424.8713 L 649.345 429.561 L 656.6272 434.7791 L 657.4694 437.4873 L 662.5223 438.5441 L 664.0581 441.5164 L 661.1848 442.7054 L 653.4567 439.667 L 652.2182 442.6393 L 652.0201 448.584 L 653.6549 450.4995 L 653.1099 463.2475 L 655.5869 467.4749 L 657.3703 477.1185 L 661.1848 483.8558 L 663.2159 490.7252 L 672.0834 500.0385 L 676.5914 501.954 L 686.2515 503.7374 L 689.8183 506.5116 L 691.7008 511.3995 L 697.0015 514.4379 L 697.6455 517.8065 L 703.293 520.5146 L 710.3275 526.5914 L 712.2595 526.1291 L 718.7491 531.3472 L 718.3528 534.7819 L 475.1658 540 L 479.4757 534.6498 L 488.789 530.1582 L 491.5632 526.7235 L 495.3282 525.997 L 499.7867 521.3733 L 502.66 513.0508 L 504.8397 511.0032 L 511.8247 516.5515 L 516.085 517.0139 L 521.8811 514.9663 L 530.699 506.4456 L 532.4329 503.8695 L 532.5815 498.7835 L 535.1575 493.8296 L 542.0435 497.9909 L 548.9789 498.3872 L 555.5676 504.1998 L 557.4006 502.5485 L 555.3695 496.2075 L 552.4467 492.3765 L 545.7094 488.9418 L 545.0654 486.63 L 549.722 479.8266 L 551.6045 473.2214 L 548.2358 464.0402 L 549.4248 459.1523 L 548.3349 452.4811 L 545.5607 450.1032 L 541.6967 441.9127 L 540.3591 433.5241 L 541.9444 425.4658 L 546.7001 418.3982 L 547.146 415.4259 L 542.2416 405.452 L 541.449 396.4029 L 540.0619 390.6564 L 536.8419 385.9006 L 527.8258 379.1633 L 524.903 374.936 L 524.0113 368.661 L 525.6956 364.3677 L 534.464 354.8562 L 537.2877 346.4015 L 536.6933 341.0513 L 534.9099 336.5598 L 529.7083 331.6719 L 526.2901 330.6811 L 519.9986 331.1435 L 509.8927 335.8332 L 503.2049 326.652 L 495.8731 323.7457 L 492.8512 319.2541 L 492.5045 316.48 L 488.9377 309.9408 L 479.7234 303.0053 L 473.4319 290.7197 L 467.2891 285.0392 L 463.0783 279.2927 L 452.1797 274.3388 L 450.2477 270.2435 L 450.3468 264.497 L 451.0898 259.7413 L 448.2166 243.7567 L 445.8883 239.1991 L 444.947 233.1223 L 449.1083 222.6861 L 450.4954 210.7967 L 452.576 204.3897 L 460.9481 192.8306 L 463.6232 186.8859 L 463.6728 182.1962 L 471.2522 191.7077 L 474.175 193.5571 L 489.8294 198.2468 L 491.6623 199.0395 L 502.4618 197.8505 L 519.1069 190.5188 L 523.2186 190.4527 Z" fill="#ff0066" fill-opacity="1" stroke="#000000" stroke-width="0.3636363557547579" paint-order="fill" stroke-opacity="1" stroke-dasharray="" stroke-linecap="butt" stroke-linejoin="miter" stroke-miterlimit="10" transform="matrix(1.100000023841858,0,0,1.100000023841858,-45.0000114440918,-29.9999942779541)" clip-path="none" style="&#10;    fill: antiquewhite;&#10;"/>
<path d="M 605.0571 243.8227 L 608.4257 247.3895 L 605.3048 247.5877 L 603.0755 245.8703 L 605.0571 243.8227 Z M 617.3428 170.0426 L 611.3485 179.356 L 611.1999 184.5741 L 609.0202 189.1317 L 609.6642 194.8782 L 608.0294 196.0011 L 607.7817 205.7107 L 605.2552 212.8443 L 601.193 221.365 L 598.7161 228.6968 L 599.1124 232.3297 L 600.9949 235.5002 L 599.905 239.7936 L 600.0537 244.6154 L 596.3382 248.4464 L 593.564 253.1361 L 590.5422 254.7213 L 585.291 253.9287 L 578.1574 247.5216 L 576.5722 247.5877 L 569.389 240.8504 L 562.6517 230.0839 L 557.0043 226.8474 L 554.131 222.8842 L 548.434 217.2038 L 546.502 211.8536 L 547.8395 207.4941 L 545.7589 204.9181 L 544.9663 197.19 L 543.6783 194.2837 L 535.9502 186.2254 L 532.8788 184.2438 L 529.8569 178.5633 L 529.8073 175.9213 L 525.7451 173.3452 L 525.2497 167.8629 L 523.9122 166.8721 L 524.259 160.333 L 522.5746 157.6248 L 522.5746 157.6248 L 531.0458 151.416 L 542.6379 150.6233 L 569.6367 154.9167 L 580.6344 160.4651 L 589.2541 163.5035 L 599.6078 167.8629 L 617.3428 170.0426 Z" fill="#8cd5f7" fill-opacity="1" stroke="#000000" stroke-width="0.3636363557547579" paint-order="fill" stroke-opacity="1" stroke-dasharray="" stroke-linecap="butt" stroke-linejoin="miter" stroke-miterlimit="10" transform="matrix(1.100000023841858,0,0,1.100000023841858,-45.0000114440918,-29.9999942779541)" clip-path="none"/>
<path d="M 525.4974 358.1588 L 524.0608 358.7532 L 525.1011 356.6396 L 525.9928 357.0359 L 525.4974 358.1588 Z" fill="#7bea05" fill-opacity="1" stroke="#000000" stroke-width="0.3636363557547579" paint-order="fill" stroke-opacity="1" stroke-dasharray="" stroke-linecap="butt" stroke-linejoin="miter" stroke-miterlimit="10" transform="matrix(1.100000023841858,0,0,1.100000023841858,-45.0000114440918,-29.9999942779541)" clip-path="none"/>
<path d="M 500.4307 94.6112 L 500.5793 94.6773 L 500.4307 94.281 L 503.9975 93.8186 L 506.5735 92.8939 L 507.4652 92.6297 L 519.6518 99.5651 L 522.1783 122.8154 L 526.0919 128.9583 L 528.4202 134.7708 L 520.4445 134.3085 L 514.4007 137.3469 L 505.2855 135.6295 L 490.1266 136.29 L 488.2441 131.0719 L 486.4112 122.9475 L 485.0241 120.1734 L 487.7487 120.8339 L 493.6439 120.1734 L 498.7959 114.3608 L 500.0839 111.1903 L 499.539 106.7648 L 502.66 100.2256 L 502.5113 96.7909 L 500.4307 94.6112 Z" fill="#ff0066" fill-opacity="1" stroke="#000000" stroke-width="0.3636363557547579" paint-order="fill" stroke-opacity="1" stroke-dasharray="" stroke-linecap="butt" stroke-linejoin="miter" stroke-miterlimit="10" transform="matrix(1.100000023841858,0,0,1.100000023841858,-45.0000114440918,-29.9999942779541)" clip-path="none" style="&#10;    fill: aliceblue;&#10;"/>
<path d="M 463.3755 120.1073 L 455.5484 114.2287 L 452.5265 114.4268 L 449.8514 112.6434 L 444.3525 114.4929 L 444.3525 111.1903 L 442.5691 109.8032 L 445.1452 107.6895 L 443.015 99.5651 L 446.5818 99.6972 L 454.9044 97.1212 L 455.7961 92.8278 L 463.1774 93.4223 L 461.9389 97.2533 L 465.6048 97.3194 L 463.8214 100.0935 L 462.4838 107.8877 L 464.1681 115.4176 L 463.4746 118.9184 L 463.3755 120.1073 Z" fill="#ff0066" fill-opacity="1" stroke="#000000" stroke-width="0.3636363557547579" paint-order="fill" stroke-opacity="1" stroke-dasharray="" stroke-linecap="butt" stroke-linejoin="miter" stroke-miterlimit="10" transform="matrix(1.100000023841858,0,0,1.100000023841858,-45.0000114440918,-29.9999942779541)" clip-path="none" style="&#10;    fill: blueviolet;&#10;"/>
<path d="M 444.3525 114.4929 L 449.8514 112.6434 L 452.5265 114.4268 L 455.5484 114.2287 L 463.3755 120.1073 L 462.3847 122.4191 L 458.5702 125.9199 L 457.3318 129.0904 L 457.7281 137.2808 L 458.9665 139.2624 L 455.697 136.9506 L 451.9815 136.7524 L 449.356 131.3361 L 445.8387 131.4682 L 447.8203 129.5527 L 446.3341 128.1656 L 444.3525 114.4929 Z" fill="#ff0066" fill-opacity="1" stroke="#000000" stroke-width="0.3636363557547579" paint-order="fill" stroke-opacity="1" stroke-dasharray="" stroke-linecap="butt" stroke-linejoin="miter" stroke-miterlimit="10" transform="matrix(1.100000023841858,0,0,1.100000023841858,-45.0000114440918,-29.9999942779541)" clip-path="none" style="&#10;    fill: beige;&#10;"/>
<path d="M 488.2441 131.0719 L 490.1266 136.29 L 492.3558 153.8599 L 492.0586 158.2854 L 465.1589 159.5404 L 465.0103 153.4636 L 462.1866 147.3868 L 462.8306 142.1687 L 471.3513 138.734 L 477.8409 138.4037 L 488.2441 131.0719 Z" fill="#ff0066" fill-opacity="1" stroke="#000000" stroke-width="0.3636363557547579" paint-order="fill" stroke-opacity="1" stroke-dasharray="" stroke-linecap="butt" stroke-linejoin="miter" stroke-miterlimit="10" transform="matrix(1.100000023841858,0,0,1.100000023841858,-45.0000114440918,-29.9999942779541)" clip-path="none"/>
<path d="M 477.8409 138.4037 L 471.3513 138.734 L 462.8306 142.1687 L 462.038 140.6495 L 458.9665 139.2624 L 457.7281 137.2808 L 457.3318 129.0904 L 458.5702 125.9199 L 462.3847 122.4191 L 463.3755 120.1073 L 463.4746 118.9184 L 465.258 119.8431 L 467.6359 119.6449 L 464.9608 122.4852 L 464.2672 126.3822 L 469.0725 134.0443 L 477.8409 138.4037 Z" fill="#ff0066" fill-opacity="1" stroke="#000000" stroke-width="0.3636363557547579" paint-order="fill" stroke-opacity="1" stroke-dasharray="" stroke-linecap="butt" stroke-linejoin="miter" stroke-miterlimit="10" transform="matrix(1.100000023841858,0,0,1.100000023841858,-45.0000114440918,-29.9999942779541)" clip-path="none" style="&#10;    fill: cadetblue;&#10;"/>
<path d="M 488.2441 131.0719 L 477.8409 138.4037 L 469.0725 134.0443 L 464.2672 126.3822 L 464.9608 122.4852 L 467.6359 119.6449 L 468.7257 116.6065 L 467.9331 110.5298 L 470.4596 108.7464 L 475.7107 108.7464 L 478.584 106.6327 L 485.4699 95.4699 L 492.5045 94.4791 L 496.6657 92.2994 L 497.4088 93.3562 L 500.4307 94.6112 L 502.5113 96.7909 L 502.66 100.2256 L 499.539 106.7648 L 500.0839 111.1903 L 498.7959 114.3608 L 493.6439 120.1734 L 487.7487 120.8339 L 485.0241 120.1734 L 486.4112 122.9475 L 488.2441 131.0719 Z M 506.5735 92.8939 L 503.9975 93.8186 L 500.4307 94.281 L 502.6104 92.3655 L 505.8305 92.6297 L 506.4249 90.1197 L 506.4745 90.1857 L 506.5735 92.8939 Z" fill="#ff0066" fill-opacity="1" stroke="#000000" stroke-width="0.3636363557547579" paint-order="fill" stroke-opacity="1" stroke-dasharray="" stroke-linecap="butt" stroke-linejoin="miter" stroke-miterlimit="10" transform="matrix(1.100000023841858,0,0,1.100000023841858,-45.0000114440918,-29.9999942779541)" clip-path="none" style="fill: aqua;"/>
<path d="M 617.3428 170.0426 L 599.6078 167.8629 L 589.2541 163.5035 L 580.6344 160.4651 L 569.6367 154.9167 L 542.6379 150.6233 L 531.0458 151.416 L 529.956 149.3023 L 529.2624 139.3284 L 528.4202 134.7708 L 526.0919 128.9583 L 522.1783 122.8154 L 519.6518 99.5651 L 519.5032 95.3378 L 519.5032 95.3378 L 526.2405 94.2149 L 540.3591 86.1566 L 546.9478 86.8831 L 552.9421 88.6005 L 556.9052 91.3086 L 563.0976 91.7049 L 571.6678 89.261 L 579.594 85.7603 L 585.836 81.4669 L 586.9258 83.3163 L 591.6816 96.9891 L 598.4684 113.6342 L 601.094 125.8538 L 603.9672 128.4959 L 610.1596 144.8768 L 610.5559 148.1794 L 614.3704 157.757 L 615.6584 166.2116 L 617.3428 170.0426 Z" fill="#f6b9fd" fill-opacity="1" stroke="#000000" stroke-width="0.3636363557547579" paint-order="fill" stroke-opacity="1" stroke-dasharray="" stroke-linecap="butt" stroke-linejoin="miter" stroke-miterlimit="10" transform="matrix(1.100000023841858,0,0,1.100000023841858,-45.0000114440918,-29.9999942779541)" clip-path="none"/>
<path d="M 522.5746 157.6248 L 520.5435 155.9735 L 521.3857 153.4636 L 519.0078 149.5004 L 516.63 149.3023 L 514.7475 151.5481 L 515.7383 154.5204 L 511.6761 160.4651 L 509.3973 167.0703 L 511.577 170.7031 L 518.8097 176.912 L 520.2958 179.2239 L 523.2186 190.4527 L 519.1069 190.5188 L 502.4618 197.8505 L 491.6623 199.0395 L 489.8294 198.2468 L 492.2568 160.5972 L 492.0586 158.2854 L 492.3558 153.8599 L 490.1266 136.29 L 505.2855 135.6295 L 514.4007 137.3469 L 520.4445 134.3085 L 528.4202 134.7708 L 529.2624 139.3284 L 529.956 149.3023 L 531.0458 151.416 L 522.5746 157.6248 L 522.5746 157.6248 Z" fill="#ff0066" fill-opacity="1" stroke="#000000" stroke-width="0.3636363557547579" paint-order="fill" stroke-opacity="1" stroke-dasharray="" stroke-linecap="butt" stroke-linejoin="miter" stroke-miterlimit="10" transform="matrix(1.100000023841858,0,0,1.100000023841858,-45.0000114440918,-29.9999942779541)" clip-path="none" style="&#10;    fill: yellowgreen;&#10;"/>
<path d="M 505.0874 84.9676 L 503.0067 84.0429 L 505.0874 84.3071 L 505.0874 84.6374 L 505.0874 84.9676 Z M 485.9158 85.0337 L 491.4146 88.3363 L 495.9722 88.006 L 496.6657 92.2994 L 492.5045 94.4791 L 485.4699 95.4699 L 478.584 106.6327 L 475.7107 108.7464 L 470.4596 108.7464 L 467.9331 110.5298 L 468.7257 116.6065 L 467.6359 119.6449 L 465.258 119.8431 L 463.4746 118.9184 L 464.1681 115.4176 L 462.4838 107.8877 L 463.8214 100.0935 L 465.6048 97.3194 L 461.9389 97.2533 L 463.1774 93.4223 L 465.3075 92.3655 L 464.5645 81.665 L 463.2764 75.324 L 467.3386 72.8141 L 474.5713 76.7111 L 476.5529 76.9753 L 473.6796 80.41 L 479.1785 84.4392 L 481.6554 84.4392 L 477.6923 89.3931 L 478.7326 90.582 L 485.2718 86.6189 L 485.9158 85.0337 Z M 497.8051 80.9385 L 498.0033 80.8724 L 498.251 80.6742 L 502.7095 84.0429 L 497.8051 80.9385 Z" fill="#ff0066" fill-opacity="1" stroke="#000000" stroke-width="0.3636363557547579" paint-order="fill" stroke-opacity="1" stroke-dasharray="" stroke-linecap="butt" stroke-linejoin="miter" stroke-miterlimit="10" transform="matrix(1.100000023841858,0,0,1.100000023841858,-45.0000114440918,-29.9999942779541)" clip-path="none"/>
<path d="M 519.6518 99.5651 L 507.4652 92.6297 L 506.5735 92.8939 L 506.4745 90.1857 L 506.4249 90.1197 L 506.7222 88.006 L 505.0874 84.9676 L 505.0874 84.6374 L 505.0874 84.3071 L 508.2083 85.1658 L 519.5032 95.3378 L 519.5032 95.3378 L 519.6518 99.5651 Z" fill="#ff0066" fill-opacity="1" stroke="#000000" stroke-width="0.3636363557547579" paint-order="fill" stroke-opacity="1" stroke-dasharray="" stroke-linecap="butt" stroke-linejoin="miter" stroke-miterlimit="10" transform="matrix(1.100000023841858,0,0,1.100000023841858,-45.0000114440918,-29.9999942779541)" clip-path="none"/>
<path d="M 485.9158 85.0337 L 485.2718 86.6189 L 478.7326 90.582 L 477.6923 89.3931 L 481.6554 84.4392 L 479.1785 84.4392 L 473.6796 80.41 L 476.5529 76.9753 L 483.8847 75.0598 L 487.6001 72.9462 L 490.7211 73.0122 L 490.7211 73.0122 L 487.8973 74.2011 L 488.3432 77.9001 L 486.213 81.0045 L 485.9158 85.0337 Z M 498.0033 80.8724 L 497.8051 80.9385 L 494.1392 79.2211 L 494.0897 77.1074 L 490.9688 73.0122 L 490.9688 73.0122 L 490.9688 73.0122 L 492.0091 73.0783 L 494.7337 78.1643 L 498.251 80.6742 L 498.0033 80.8724 Z M 490.7211 73.0122 L 490.9192 72.9462 L 490.9688 73.0122 L 490.9688 73.0122 L 490.9688 73.0122 L 490.7211 73.0122 L 490.7211 73.0122 Z" fill="#8cd5f7" fill-opacity="1" stroke="#000000" stroke-width="0.3636363557547579" paint-order="fill" stroke-opacity="1" stroke-dasharray="" stroke-linecap="butt" stroke-linejoin="miter" stroke-miterlimit="10" transform="matrix(1.100000023841858,0,0,1.100000023841858,-45.0000114440918,-29.9999942779541)" clip-path="none"/>
<path d="M 443.015 99.5651 L 445.1452 107.6895 L 442.5691 109.8032 L 444.3525 111.1903 L 444.3525 114.4929 L 446.3341 128.1656 L 447.8203 129.5527 L 445.8387 131.4682 L 426.2708 149.1702 L 424.5369 152.737 L 397.0428 135.1672 L 395.1603 130.9398 L 397.7363 124.797 L 399.6188 122.8815 L 406.5047 119.6449 L 409.378 117.135 L 411.5577 113.436 L 410.4183 110.3977 L 405.9103 103.4622 L 407.3964 98.3101 L 406.0093 94.4131 L 411.7063 91.3086 L 415.3722 84.6374 L 418.4932 85.3639 L 418.1464 88.006 L 420.4252 87.8739 L 423.2489 85.0337 L 418.7409 85.3639 L 424.3388 81.5329 L 425.924 74.3333 L 427.9056 76.9753 L 430.3825 81.665 L 432.8595 82.6558 L 431.8192 87.0813 L 433.1072 89.1289 L 436.4758 90.3178 L 440.3399 94.281 L 443.015 99.5651 Z" fill="#ff0066" fill-opacity="1" stroke="#000000" stroke-width="0.3636363557547579" paint-order="fill" stroke-opacity="1" stroke-dasharray="" stroke-linecap="butt" stroke-linejoin="miter" stroke-miterlimit="10" transform="matrix(1.100000023841858,0,0,1.100000023841858,-45.0000114440918,-29.9999942779541)" clip-path="none"/>
<path d="M 395.1603 130.9398 L 397.0428 135.1672 L 424.5369 152.737 L 391.4944 172.7508 L 363.5049 200.4926 L 354.786 206.8997 L 320.7527 215.0901 L 317.5327 216.279 L 314.2136 220.2422 L 294.5466 259.7413 L 194.2301 255.7781 L 193.4375 255.7781 L 197.1033 181.2715 L 196.3603 175.7892 L 193.2888 166.9382 L 193.5861 158.6156 L 191.1091 152.6709 L 191.7531 146.0657 L 187.1955 133.3177 L 187.3442 131.4022 L 191.2577 124.3346 L 197.4006 116.4084 L 201.8095 102.4714 L 197.995 90.7142 L 197.1033 84.4392 L 197.7969 72.9462 L 204.881 67.728 L 206.6148 63.5668 L 210.5779 60 L 211.9155 66.2089 L 220.5848 68.1244 L 238.3693 63.5007 L 244.314 63.6989 L 260.5133 69.0491 L 276.663 71.8893 L 281.2701 74.1351 L 285.4314 73.6067 L 291.6238 76.7772 L 300.9371 78.1643 L 302.5224 83.1842 L 306.3369 85.8924 L 313.8668 87.8079 L 322.3875 85.496 L 323.6755 91.3086 L 326.8955 92.4976 L 334.3759 92.6957 L 341.1628 94.4791 L 344.7791 93.2902 L 361.8701 100.2917 L 362.2664 102.0751 L 370.4899 106.5666 L 378.5152 106.1703 L 390.4541 100.4899 L 394.4172 97.9799 L 394.4172 98.0459 L 395.1603 130.9398 Z" fill="#7bea05" fill-opacity="1" stroke="#000000" stroke-width="0.3636363557547579" paint-order="fill" stroke-opacity="1" stroke-dasharray="" stroke-linecap="butt" stroke-linejoin="miter" stroke-miterlimit="10" transform="matrix(1.100000023841858,0,0,1.100000023841858,-45.0000114440918,-29.9999942779541)" clip-path="none"/>
<path d="M 395.1603 130.9398 L 394.4172 98.0459 L 394.4172 97.9799 L 401.5013 92.5636 L 404.5232 90.9784 L 414.2328 82.3255 L 415.3722 84.6374 L 411.7063 91.3086 L 406.0093 94.4131 L 407.3964 98.3101 L 405.9103 103.4622 L 410.4183 110.3977 L 411.5577 113.436 L 409.378 117.135 L 406.5047 119.6449 L 399.6188 122.8815 L 397.7363 124.797 L 395.1603 130.9398 Z" fill="#ff0066" fill-opacity="1" stroke="#000000" stroke-width="0.3636363557547579" paint-order="fill" stroke-opacity="1" stroke-dasharray="" stroke-linecap="butt" stroke-linejoin="miter" stroke-miterlimit="10" transform="matrix(1.100000023841858,0,0,1.100000023841858,-45.0000114440918,-29.9999942779541)" clip-path="none" style="&#10;    fill: aqua !important;&#10;"/>
<path d="M 458.9665 139.2624 L 462.038 140.6495 L 462.8306 142.1687 L 462.1866 147.3868 L 465.0103 153.4636 L 465.1589 159.5404 L 492.0586 158.2854 L 492.2568 160.5972 L 489.8294 198.2468 L 474.175 193.5571 L 471.2522 191.7077 L 463.6728 182.1962 L 462.8306 178.6294 L 457.1831 177.2423 L 454.1613 163.5035 L 450.9908 160.7293 L 442.1233 161.8522 L 433.2558 165.8813 L 422.4563 172.9489 L 402.4921 192.2361 L 400.6591 204.5878 L 399.5693 208.3528 L 392.4357 226.6492 L 386.8873 233.8489 L 380.3481 238.6707 L 360.3344 248.9087 L 357.2134 251.1545 L 351.8137 261.1944 L 294.5466 259.7413 L 314.2136 220.2422 L 317.5327 216.279 L 320.7527 215.0901 L 354.786 206.8997 L 363.5049 200.4926 L 391.4944 172.7508 L 424.5369 152.737 L 426.2708 149.1702 L 445.8387 131.4682 L 449.356 131.3361 L 451.9815 136.7524 L 455.697 136.9506 L 458.9665 139.2624 Z" fill="#ff0066" fill-opacity="1" stroke="#000000" stroke-width="0.3636363557547579" paint-order="fill" stroke-opacity="1" stroke-dasharray="" stroke-linecap="butt" stroke-linejoin="miter" stroke-miterlimit="10" transform="matrix(1.100000023841858,0,0,1.100000023841858,-45.0000114440918,-29.9999942779541)" clip-path="none" style="&#10;    fill: burlywood;&#10;"/>
<path d="M 402.4921 192.2361 L 422.4563 172.9489 L 433.2558 165.8813 L 442.1233 161.8522 L 450.9908 160.7293 L 454.1613 163.5035 L 457.1831 177.2423 L 450 187.7446 L 447.0772 190.9151 L 443.5104 192.7645 L 425.7754 197.7845 L 420.9701 195.869 L 402.4921 192.2361 Z" fill="#ff0066" fill-opacity="1" stroke="#000000" stroke-width="0.3636363557547579" paint-order="fill" stroke-opacity="1" stroke-dasharray="" stroke-linecap="butt" stroke-linejoin="miter" stroke-miterlimit="10" transform="matrix(1.100000023841858,0,0,1.100000023841858,-45.0000114440918,-29.9999942779541)" clip-path="none" style="&#10;    fill: aqua;&#10;"/>
<path d="M 466.9919 534.7819 L 464.0691 540 L 181.2509 534.5837 L 193.4375 255.7781 L 194.2301 255.7781 L 294.5466 259.7413 L 351.8137 261.1944 L 439.3986 262.1191 L 438.7051 263.7704 L 439.1014 268.5262 L 443.0645 277.179 L 450.2477 284.5768 L 456.341 287.5492 L 460.4032 291.7104 L 465.8525 302.8072 L 471.9458 310.3371 L 476.0575 313.9039 L 494.4365 336.89 L 501.3719 343.3631 L 506.3754 345.0805 L 512.3201 343.5613 L 522.3269 338.6734 L 528.2716 339.1358 L 529.2624 343.2971 L 524.3085 354.9883 L 518.3143 359.8761 L 516.1346 363.2448 L 518.9583 377.9083 L 521.4352 382.0696 L 525.6461 385.2401 L 531.7394 389.5995 L 533.7209 393.5627 L 534.2658 398.5826 L 538.1299 409.4812 L 536.1483 415.2938 L 535.8016 431.4765 L 536.5446 435.0433 L 534.1668 439.4028 L 527.0827 440.6578 L 525.6956 445.0172 L 531.2935 450.7637 L 529.956 452.4811 L 521.8316 454.4626 L 518.7106 458.5578 L 516.4813 468.4657 L 519.8005 470.5793 L 531.2935 470.0509 L 530.8477 473.948 L 525.8442 479.8266 L 517.2244 501.6238 L 504.4434 497.3304 L 490.2257 504.2658 L 482.0517 504.0016 L 479.4757 507.9648 L 480.7142 515.0984 L 476.5529 522.6283 L 473.1347 524.808 L 466.4469 525.997 L 463.326 531.2151 L 466.9919 534.7819 Z" fill="#ff0066" fill-opacity="1" stroke="#000000" stroke-width="0.3636363557547579" paint-order="fill" stroke-opacity="1" stroke-dasharray="" stroke-linecap="butt" stroke-linejoin="miter" stroke-miterlimit="10" transform="matrix(1.100000023841858,0,0,1.100000023841858,-45.0000114440918,-29.9999942779541)" clip-path="none" style="&#10;    fill: aquamarine;&#10;"/>
<path d="M 438.7051 263.7704 L 439.3986 262.1191 L 351.8137 261.1944 L 357.2134 251.1545 L 360.3344 248.9087 L 380.3481 238.6707 L 386.8873 233.8489 L 392.4357 226.6492 L 399.5693 208.3528 L 443.015 207.5602 L 450.4954 210.7967 L 449.1083 222.6861 L 444.947 233.1223 L 445.8883 239.1991 L 448.2166 243.7567 L 451.0898 259.7413 L 450.3468 264.497 L 445.7396 265.0254 L 438.7051 263.7704 Z" fill="#ff0066" fill-opacity="1" stroke="#000000" stroke-width="0.3636363557547579" paint-order="fill" stroke-opacity="1" stroke-dasharray="" stroke-linecap="butt" stroke-linejoin="miter" stroke-miterlimit="10" transform="matrix(1.100000023841858,0,0,1.100000023841858,-45.0000114440918,-29.9999942779541)" clip-path="none" style="&#10;    fill: aliceblue;&#10;"/>
<path d="M 450.4954 210.7967 L 443.015 207.5602 L 399.5693 208.3528 L 400.6591 204.5878 L 402.4921 192.2361 L 420.9701 195.869 L 425.7754 197.7845 L 443.5104 192.7645 L 447.0772 190.9151 L 450 187.7446 L 457.1831 177.2423 L 462.8306 178.6294 L 463.6728 182.1962 L 463.6232 186.8859 L 460.9481 192.8306 L 452.576 204.3897 L 450.4954 210.7967 Z" fill="#ff0066" fill-opacity="1" stroke="#000000" stroke-width="0.3636363557547579" paint-order="fill" stroke-opacity="1" stroke-dasharray="" stroke-linecap="butt" stroke-linejoin="miter" stroke-miterlimit="10" transform="matrix(1.100000023841858,0,0,1.100000023841858,-45.0000114440918,-29.9999942779541)" clip-path="none" style="&#10;    fill: yellowgreen;&#10;"/>
<path d="M 463.1774 93.4223 L 455.7961 92.8278 L 454.9044 97.1212 L 446.5818 99.6972 L 443.015 99.5651 L 440.3399 94.281 L 436.4758 90.3178 L 433.1072 89.1289 L 431.8192 87.0813 L 432.8595 82.6558 L 430.3825 81.665 L 427.9056 76.9753 L 426.4194 73.7388 L 431.8192 76.2488 L 439.4482 74.4654 L 447.3249 71.8893 L 433.8503 79.4193 L 441.8261 79.7495 L 444.5012 76.9093 L 448.4147 78.2303 L 452.0806 77.3716 L 454.3099 73.3425 L 457.0841 74.5975 L 457.4804 72.2856 L 453.3686 69.5115 L 456.8859 68.983 L 461.9884 70.3701 L 467.3386 72.8141 L 463.2764 75.324 L 464.5645 81.665 L 465.3075 92.3655 L 463.1774 93.4223 Z" fill="#7bea05" fill-opacity="1" stroke="#000000" stroke-width="0.3636363557547579" paint-order="fill" stroke-opacity="1" stroke-dasharray="" stroke-linecap="butt" stroke-linejoin="miter" stroke-miterlimit="10" transform="matrix(1.100000023841858,0,0,1.100000023841858,-45.0000114440918,-29.9999942779541)" clip-path="none" style="&#10;    fill: aqua;&#10;"/>
<path d="M 438.7051 263.7704 L 445.7396 265.0254 L 450.3468 264.497 L 450.2477 270.2435 L 452.1797 274.3388 L 463.0783 279.2927 L 467.2891 285.0392 L 473.4319 290.7197 L 479.7234 303.0053 L 476.8501 302.8072 L 473.4319 297.9854 L 465.8525 302.8072 L 460.4032 291.7104 L 456.341 287.5492 L 450.2477 284.5768 L 443.0645 277.179 L 439.1014 268.5262 L 438.7051 263.7704 Z" fill="#8cd5f7" fill-opacity="1" stroke="#000000" stroke-width="0.3636363557547579" paint-order="fill" stroke-opacity="1" stroke-dasharray="" stroke-linecap="butt" stroke-linejoin="miter" stroke-miterlimit="10" transform="matrix(1.100000023841858,0,0,1.100000023841858,-45.0000114440918,-29.9999942779541)" clip-path="none"/>
<path d="M 527.8258 379.1633 L 536.8419 385.9006 L 540.0619 390.6564 L 541.449 396.4029 L 542.2416 405.452 L 547.146 415.4259 L 546.7001 418.3982 L 541.9444 425.4658 L 540.3591 433.5241 L 541.6967 441.9127 L 545.5607 450.1032 L 548.3349 452.4811 L 549.4248 459.1523 L 548.2358 464.0402 L 551.6045 473.2214 L 549.722 479.8266 L 545.0654 486.63 L 545.7094 488.9418 L 552.4467 492.3765 L 555.3695 496.2075 L 557.4006 502.5485 L 555.5676 504.1998 L 548.9789 498.3872 L 542.0435 497.9909 L 535.1575 493.8296 L 532.5815 498.7835 L 532.4329 503.8695 L 530.699 506.4456 L 521.8811 514.9663 L 516.085 517.0139 L 511.8247 516.5515 L 504.8397 511.0032 L 502.66 513.0508 L 499.7867 521.3733 L 495.3282 525.997 L 491.5632 526.7235 L 488.789 530.1582 L 479.4757 534.6498 L 475.1658 540 L 472.4907 540 L 474.9181 532.4701 L 474.5713 530.1582 L 471.0541 528.7711 L 466.9919 534.7819 L 463.326 531.2151 L 466.4469 525.997 L 473.1347 524.808 L 476.5529 522.6283 L 480.7142 515.0984 L 479.4757 507.9648 L 482.0517 504.0016 L 490.2257 504.2658 L 504.4434 497.3304 L 517.2244 501.6238 L 525.8442 479.8266 L 530.8477 473.948 L 531.2935 470.0509 L 519.8005 470.5793 L 516.4813 468.4657 L 518.7106 458.5578 L 521.8316 454.4626 L 529.956 452.4811 L 531.2935 450.7637 L 525.6956 445.0172 L 527.0827 440.6578 L 534.1668 439.4028 L 536.5446 435.0433 L 535.8016 431.4765 L 536.1483 415.2938 L 538.1299 409.4812 L 534.2658 398.5826 L 533.7209 393.5627 L 531.7394 389.5995 L 525.6461 385.2401 L 527.1818 384.0512 L 527.8258 379.1633 Z" fill="#ff0066" fill-opacity="1" stroke="#000000" stroke-width="0.3636363557547579" paint-order="fill" stroke-opacity="1" stroke-dasharray="" stroke-linecap="butt" stroke-linejoin="miter" stroke-miterlimit="10" transform="matrix(1.100000023841858,0,0,1.100000023841858,-45.0000114440918,-29.9999942779541)" clip-path="none"/>
<path d="M 527.8258 379.1633 L 527.1818 384.0512 L 525.6461 385.2401 L 521.4352 382.0696 L 518.9583 377.9083 L 516.1346 363.2448 L 518.3143 359.8761 L 524.3085 354.9883 L 529.2624 343.2971 L 528.2716 339.1358 L 522.3269 338.6734 L 512.3201 343.5613 L 506.3754 345.0805 L 501.3719 343.3631 L 494.4365 336.89 L 502.4618 332.0682 L 507.7129 337.0882 L 509.8927 335.8332 L 519.9986 331.1435 L 526.2901 330.6811 L 529.7083 331.6719 L 534.9099 336.5598 L 536.6933 341.0513 L 537.2877 346.4015 L 534.464 354.8562 L 525.6956 364.3677 L 524.0113 368.661 L 524.903 374.936 L 527.8258 379.1633 Z M 525.4974 358.1588 L 525.9928 357.0359 L 525.1011 356.6396 L 524.0608 358.7532 L 525.4974 358.1588 Z" fill="#8cd5f7" fill-opacity="1" stroke="#000000" stroke-width="0.3636363557547579" paint-order="fill" stroke-opacity="1" stroke-dasharray="" stroke-linecap="butt" stroke-linejoin="miter" stroke-miterlimit="10" transform="matrix(1.100000023841858,0,0,1.100000023841858,-45.0000114440918,-29.9999942779541)" clip-path="none"/>
<path d="M 509.8927 335.8332 L 507.7129 337.0882 L 502.4618 332.0682 L 494.4365 336.89 L 476.0575 313.9039 L 471.9458 310.3371 L 465.8525 302.8072 L 473.4319 297.9854 L 476.8501 302.8072 L 479.7234 303.0053 L 488.9377 309.9408 L 492.5045 316.48 L 492.8512 319.2541 L 495.8731 323.7457 L 503.2049 326.652 L 509.8927 335.8332 Z" fill="#f6b9fd" fill-opacity="1" stroke="#000000" stroke-width="0.3636363557547579" paint-order="fill" stroke-opacity="1" stroke-dasharray="" stroke-linecap="butt" stroke-linejoin="miter" stroke-miterlimit="10" transform="matrix(1.100000023841858,0,0,1.100000023841858,-45.0000114440918,-29.9999942779541)" clip-path="none"/>
<path d="M -5 -5 L 5 -5 L 5 5 L -5 5 L -5 -5 Z" fill="none" fill-opacity="1" stroke="#ccc" stroke-width="0" paint-order="fill" stroke-opacity="1" stroke-dasharray="" stroke-linecap="butt" stroke-linejoin="miter" stroke-miterlimit="10" transform="matrix(1,0,0,1,895,300)" clip-path="none"/>
<path fill="rgba(255,255,255,0)" fill-opacity="0" stroke="#ccc" stroke-width="0" paint-order="fill" stroke-opacity="1" stroke-dasharray="" stroke-linecap="butt" stroke-linejoin="miter" stroke-miterlimit="10" transform="matrix(1,0,0,1,15,10)" clip-path="none"/><defs><filter id="f1" x="-100%" y="-100%" width="1000%" height="1000%"><feOffset result="offOut" in="SourceGraphic" dx="-9.799999999999999" dy="9.799999999999999"></feOffset><feColorMatrix result="matrixOut" in="offOut" type="matrix" values="0.2 0 0 0 0 0 0.2 0 0 0 0 0 0.2 0 0 0 0 0 1 0"></feColorMatrix><feGaussianBlur result="blurOut" in="matrixOut" stdDeviation="8"></feGaussianBlur><feBlend in="SourceGraphic" in2="blurOut" mode="normal"></feBlend></filter></defs>
<text transform="matrix(1 0 0 1 568.1403 450.7794)" style="font-family:'Tahoma'; font-size:13px;" class="maplabels1">Al Bahr al Ahmar</text>
<text transform="matrix(1 0 0 1 559.0911 183.4216)" style="font-family:'Tahoma'; font-size:12px;" class="maplabels1">Janub Sina'</text>
<text transform="matrix(1 0 0 1 496.5916 113.598)" style="font-family:'Tahoma'; font-size:10px;" class="maplabels1">Al Isma.</text>
<text transform="matrix(1 0 0 1 443.7877 90.9715)" style="font-family:'Tahoma'; font-size:9px;" class="maplabels1">Ghar.</text>
<text transform="matrix(1 0 0 1 444.4418 105.7588)" style="font-family:'Tahoma'; font-size:9px;" class="maplabels1">Min.</text>
<text transform="matrix(1 0 0 1 463.133 135.6857)" style="font-family:'Tahoma'; font-size:9px;" class="maplabels1">Qahirah</text>
<text transform="matrix(1 0 0 1 458.0653 121.0818)" style="font-family:'Tahoma'; font-size:9px;" class="maplabels1">Qal.</text>
<text transform="matrix(0.5219 -0.853 0.853 0.5219 480.0468 113.7399)" style="font-family:'Tahoma'; font-size:10px;" class="maplabels1">Sharq.</text>
<text transform="matrix(1 0 0 1 546.9427 114.4698)" style="font-family:'Tahoma'; font-size:12px;" class="maplabels1">Shamal Sina'</text>
<text transform="matrix(-2.865644e-02 -0.9996 0.9996 -2.865644e-02 505.4737 183.4212)" style="font-family:'Tahoma'; font-size:10px;" class="maplabels1">As Suways</text>
<text transform="matrix(1 0 0 1 467.1656 79.5215)" style="font-family:'Tahoma'; font-size:9px;" class="maplabels1">Daq.</text>
<text transform="matrix(0.8607 -0.5091 0.5091 0.8607 523.239 69.1316)" style="font-family:'Tahoma'; font-size:10px;" class="maplabels1">Bur Sa`id</text>
<text transform="matrix(0.8633 -0.5047 0.5047 0.8633 480.625 51.7665)" style="font-family:'Tahoma'; font-size:10px;" class="maplabels1">Dumyat</text>
<text transform="matrix(1 0 0 1 394.5261 114.4697)" style="font-family:'Tahoma'; font-size:9px;" class="maplabels1">Al Buhayrah</text>
<text transform="matrix(1 0 0 1 249.4102 145.8579)" style="font-family:'Tahoma'; font-size:13px;" class="maplabels1">Matruh</text>
<text transform="matrix(0.8854 -0.4649 0.4649 0.8854 365.3821 83.0742)" style="font-family:'Tahoma'; font-size:9px;" class="maplabels1">Al Iskandariyah</text>
<text transform="matrix(1 0 0 1 322.0667 222.5347)" style="font-family:'Tahoma'; font-size:13px;" class="maplabels1">Al Jizah</text>
<text transform="matrix(1 0 0 1 411.9093 173.7579)" style="font-family:'Tahoma'; font-size:9px;" class="maplabels1">Al Fayyum</text>
<text transform="matrix(1 0 0 1 304.4548 407.678)" style="font-family:'Tahoma'; font-size:13px;" class="maplabels1">Al Wadi at Jadid</text>
<text transform="matrix(1 0 0 1 394.5262 244.7078)" style="font-family:'Tahoma'; font-size:13px;" class="maplabels1">Al Minya</text>
<text transform="matrix(1 0 0 1 397.7412 195.7006)" style="font-family:'Tahoma'; font-size:10px;" class="maplabels1">Bani Suwayf</text>
<text transform="matrix(1 0 0 1 427.8215 32.407)" style="enable-background:new    ;" class="maplabels1"><tspan x="0" y="0" style="font-family:'Tahoma'; font-size:10px;">Kafr ash</tspan><tspan x="0" y="9" style="font-family:'Tahoma'; font-size:10px;">Shaykh</tspan></text>
<text transform="matrix(1 0 0 1 472.5059 285.5838)" style="font-family:'Tahoma'; font-size:10px;" class="maplabels1">Asyut</text>
<text transform="matrix(0.3953 -0.9185 0.9185 0.3953 539.9095 514.6346)" style="font-family:'Tahoma'; font-size:12px;" class="maplabels1">Aswan</text>
<text transform="matrix(1 0 0 1 543.7063 372.341)" style="font-family:'Tahoma'; font-size:10px;" class="maplabels1">Qina</text>
<text transform="matrix(1 0 0 1 498.8801 319.2904)" style="font-family:'Tahoma'; font-size:10px;" class="maplabels1">Suhaj</text>
<text x="743" y="586" font-size="11">Created with paintmaps.com</text>
</svg>